Coordinates
version=1
nRows=13
nColumns=27
inDegrees=yes

Units are S.I. units (second, meters, Newtons, ...)
If the header above contains a line with 'inDegrees', this indicates whether rotational values are in degrees (yes) or radians (no).

endheader
time	pelvis_rotation	pelvis_tilt	pelvis_list	pelvis_tx	pelvis_ty	pelvis_tz	hip_flexion_r	hip_adduction_r	hip_rotation_r	knee_angle_r	knee_rotation_r	knee_adduction_r	knee_angle_r_beta	ankle_angle_r	subtalar_angle_r	mtp_angle_r	hip_flexion_l	hip_adduction_l	hip_rotation_l	knee_angle_l	knee_rotation_l	knee_adduction_l	knee_angle_l_beta	ankle_angle_l	subtalar_angle_l	mtp_angle_l
      3.25500000	     -0.42077332	    -22.84494987	     -0.58496389	      0.09020616	      0.81834668	     -1.16721530	     44.70266482	    -27.07014287	    -21.58929617	     34.70967847	      0.00000000	      2.77133719	      0.60579817	      1.26583093	      0.00000000	      0.00000000	     46.57521138	    -22.42556617	     -0.34879303	     31.07856766	      0.00000000	      3.92728722	      0.54242333	      1.51434837	      0.00000000	      0.00000000
      3.26000000	      0.00581579	    -22.76320826	     -0.91604319	      0.08992570	      0.81792815	     -1.16703043	     44.27985333	    -27.10861448	    -22.67851184	     34.76119230	      0.00000000	      3.29147274	      0.60669726	      1.17964233	      0.00000000	      0.00000000	     47.07101780	    -22.51994883	      0.40090654	     31.44675849	      0.00000000	      3.89053910	      0.54884947	      1.50378137	      0.00000000	      0.00000000
      3.26500000	     -0.45217489	    -23.27812876	     -0.35801131	      0.08829303	      0.81693373	     -1.16722055	     45.90452588	    -27.45426142	    -21.16145243	     35.56701127	      0.00000000	      3.07360378	      0.62076145	      1.39346401	      0.00000000	      0.00000000	     47.50122601	    -22.36547508	     -0.57629530	     31.73536995	      0.00000000	      3.52203081	      0.55388669	      1.61030788	      0.00000000	      0.00000000
      3.27000000	      0.08327521	    -23.22223691	     -0.71461812	      0.08789303	      0.81643782	     -1.16699160	     45.44978204	    -27.55141337	    -22.43240460	     35.65888138	      0.00000000	      3.63338890	      0.62236489	      1.36054071	      0.00000000	      0.00000000	     48.09101377	    -22.40587274	      0.37067121	     32.09549572	      0.00000000	      3.46773049	      0.56017208	      1.56108543	      0.00000000	      0.00000000
      3.27500000	      0.01989625	    -23.33673627	     -0.69540823	      0.08706701	      0.81571895	     -1.16683739	     45.89369443	    -27.63374365	    -22.25024969	     36.02893679	      0.00000000	      3.75717137	      0.62882357	      1.41029423	      0.00000000	      0.00000000	     48.45593693	    -22.49820109	      0.17693229	     32.41903685	      0.00000000	      3.13951302	      0.56581893	      1.59582481	      0.00000000	      0.00000000
      3.28000000	      0.15514526	    -23.53900527	     -0.61613692	      0.08610793	      0.81489171	     -1.16679737	     46.37732626	    -27.90674139	    -22.33206493	     36.48444074	      0.00000000	      3.98697104	      0.63677362	      1.51860816	      0.00000000	      0.00000000	     49.00136170	    -22.42008828	      0.27090671	     32.76388606	      0.00000000	      2.92147583	      0.57183769	      1.62023014	      0.00000000	      0.00000000
      3.28500000	      0.12586204	    -23.63402796	     -0.62068940	      0.08530853	      0.81412187	     -1.16661997	     46.76298748	    -27.99620473	    -22.24040060	     36.85106169	      0.00000000	      4.13277937	      0.64317236	      1.58319272	      0.00000000	      0.00000000	     49.37305044	    -22.51653894	      0.13787247	     33.09450483	      0.00000000	      2.59315652	      0.57760807	      1.65831061	      0.00000000	      0.00000000
      3.29000000	      0.21193070	    -23.76754694	     -0.56851589	      0.08445415	      0.81327235	     -1.16653891	     47.17403297	    -28.21499842	    -22.27500626	     37.27809347	      0.00000000	      4.34047713	      0.65062547	      1.66753669	      0.00000000	      0.00000000	     49.83498105	    -22.50447482	      0.12164823	     33.44950487	      0.00000000	      2.30667953	      0.58380399	      1.71882583	      0.00000000	      0.00000000
      3.29500000	     -0.26771331	    -24.14254441	     -0.10150451	      0.08303584	      0.81218669	     -1.16656960	     48.61157268	    -28.43167538	    -20.81914372	     38.00861355	      0.00000000	      4.08928307	      0.66337545	      1.80366943	      0.00000000	      0.00000000	     50.12735356	    -22.50527489	     -0.92207238	     33.73126789	      0.00000000	      1.88200823	      0.58872169	      1.78421582	      0.00000000	      0.00000000
      3.30000000	      0.25285655	    -23.93065964	     -0.59162339	      0.08292785	      0.81162296	     -1.16626062	     47.84438397	    -28.45300280	    -22.27326733	     38.01727564	      0.00000000	      4.70991157	      0.66352663	      1.83906694	      0.00000000	      0.00000000	     50.60709289	    -22.65762978	     -0.00978000	     34.12965227	      0.00000000	      1.65938558	      0.59567480	      1.83390921	      0.00000000	      0.00000000
      3.30500000	      0.33278836	    -24.00454866	     -0.56354366	      0.08218293	      0.81076393	     -1.16620551	     48.16261434	    -28.65179447	    -22.33793488	     38.40920421	      0.00000000	      4.91698723	      0.67036708	      1.90011411	      0.00000000	      0.00000000	     50.99676804	    -22.67132167	     -0.03700156	     34.47198224	      0.00000000	      1.35102032	      0.60164959	      1.88764642	      0.00000000	      0.00000000
      3.31000000	      0.31265947	    -24.06003843	     -0.57333257	      0.08146187	      0.80992009	     -1.16609831	     48.49080382	    -28.75104243	    -22.27813440	     38.76877427	      0.00000000	      5.09216818	      0.67664276	      1.98229677	      0.00000000	      0.00000000	     51.32711290	    -22.77111686	     -0.15947846	     34.80470688	      0.00000000	      1.02073918	      0.60745673	      1.96994830	      0.00000000	      0.00000000
      3.31500000	      0.29033150	    -24.10240087	     -0.53648211	      0.08077745	      0.80908787	     -1.16605984	     48.83380373	    -28.88891455	    -22.17661066	     39.13890523	      0.00000000	      5.27035681	      0.68310276	      2.06494266	      0.00000000	      0.00000000	     51.60795296	    -22.84190568	     -0.35687768	     35.11846547	      0.00000000	      0.65276659	      0.61293285	      2.09139425	      0.00000000	      0.00000000
